<?xml version="1.0" encoding="iso-8859-1"?>
<!-- Generator: Adobe Illustrator 19.0.0, SVG Export Plug-In . SVG Version: 6.00 Build 0)  -->
<svg version="1.1" id="Capa_1" xmlns="http://www.w3.org/2000/svg" xmlns:xlink="http://www.w3.org/1999/xlink" x="0px" y="0px"
	 viewBox="0 0 382.492 382.492" style="enable-background:new 0 0 382.492 382.492;" xml:space="preserve">
<g>
	<path id="Solar-System" d="M333.138,326.969c-3.405,0-6.169,2.764-6.169,6.169s2.764,6.169,6.169,6.169
		c3.405,0,6.169-2.764,6.169-6.169S336.544,326.969,333.138,326.969L333.138,326.969z M61.69,111.046
		c0-3.405-2.764-6.169-6.169-6.169s-6.169,2.764-6.169,6.169s2.764,6.169,6.169,6.169S61.69,114.452,61.69,111.046L61.69,111.046z
		 M339.307,43.185c3.405,0,6.169-2.764,6.169-6.169s-2.764-6.169-6.169-6.169c-3.405,0-6.169,2.764-6.169,6.169
		S335.901,43.185,339.307,43.185L339.307,43.185z M191.245,363.985c-10.642,0-21.049-0.987-31.185-2.776
		c0.154-1.123,0.339-2.233,0.339-3.393c0-13.628-11.049-24.677-24.677-24.677c-9.494,0-17.638,5.417-21.765,13.276
		c0,0,0.006,0,0.006-0.006C53.9,317.525,12.338,256.067,12.338,185.077c0-98.652,80.256-178.908,178.908-178.908
		s178.908,80.256,178.908,178.908S289.897,363.985,191.245,363.985L191.245,363.985z M135.723,376.323
		c-10.204,0-18.508-8.304-18.508-18.508s8.304-18.508,18.508-18.508c10.204,0,18.508,8.304,18.508,18.508
		S145.926,376.323,135.723,376.323L135.723,376.323z M191.245,0C89.027,0,6.169,82.859,6.169,185.077
		c0,73.753,43.148,137.413,105.568,167.155c0.031-0.123,0.08-0.241,0.111-0.364c-0.475,1.912-0.802,3.887-0.802,5.947
		c0,13.628,11.049,24.677,24.677,24.677c10.296,0,19.106-6.317,22.802-15.281c10.63,1.9,21.549,2.943,32.722,2.943
		c102.218,0,185.077-82.859,185.077-185.077S293.464,0,191.245,0L191.245,0z M191.245,314.631
		c-71.434,0-129.554-58.12-129.554-129.554c0-56.806,36.799-105.074,87.776-122.509c2.77,6.724,9.377,11.462,17.101,11.462
		c10.222,0,18.508-8.285,18.508-18.508c0,0.105-0.031,0.21-0.031,0.315c2.067-0.099,4.109-0.315,6.2-0.315
		c71.434,0,129.554,58.12,129.554,129.554S262.68,314.631,191.245,314.631L191.245,314.631z M166.568,43.185
		c6.805,0,12.338,5.534,12.338,12.338c0,6.804-5.534,12.338-12.338,12.338c-6.805,0-12.338-5.534-12.338-12.338
		C154.23,48.719,159.764,43.185,166.568,43.185L166.568,43.185z M191.245,49.354c-2.431,0-4.843,0.068-7.243,0.197
		c-2.492-7.274-9.315-12.536-17.434-12.536c-10.223,0-18.508,8.285-18.508,18.508c0,0.296,0.074,0.568,0.086,0.864v-0.006
		c-53.82,18.02-92.625,68.812-92.625,128.696c0,74.956,60.767,135.723,135.723,135.723s135.723-60.767,135.723-135.723
		S266.201,49.354,191.245,49.354L191.245,49.354z M271.445,172.738c-3.399,0-6.169-2.77-6.169-6.169c0-3.399,2.77-6.169,6.169-6.169
		c3.399,0,6.169,2.77,6.169,6.169C277.615,169.968,274.844,172.738,271.445,172.738L271.445,172.738z M271.445,185.077
		c0,44.221-35.979,80.2-80.2,80.2s-80.2-35.979-80.2-80.2s35.979-80.2,80.2-80.2c33.832,0,62.778,21.093,74.537,50.791
		c-3.948,2.054-6.675,6.138-6.675,10.901c0,6.817,5.521,12.338,12.339,12.338c-0.105,0-0.21-0.031-0.315-0.031
		C271.292,180.931,271.445,182.986,271.445,185.077L271.445,185.077z M271.445,154.231c0.142,0,0.271,0.037,0.413,0.043
		c-12.419-32.469-43.783-55.566-80.613-55.566c-47.7,0-86.369,38.669-86.369,86.369s38.669,86.369,86.369,86.369
		s86.369-38.669,86.369-86.369c0-2.591-0.167-5.139-0.389-7.668c3.886-2.079,6.558-6.126,6.558-10.839
		C283.784,159.752,278.263,154.231,271.445,154.231L271.445,154.231z M191.245,215.923c-17.009,0-30.846-13.838-30.846-30.846
		c0-17.009,13.838-30.846,30.846-30.846s30.846,13.838,30.846,30.846C222.09,202.086,208.254,215.923,191.245,215.923
		L191.245,215.923z M191.245,148.062c-20.445,0-37.015,16.571-37.015,37.015c0,20.445,16.571,37.015,37.015,37.015
		c20.445,0,37.015-16.571,37.015-37.015C228.262,164.632,211.689,148.062,191.245,148.062L191.245,148.062z"/>
</g>
<g>
</g>
<g>
</g>
<g>
</g>
<g>
</g>
<g>
</g>
<g>
</g>
<g>
</g>
<g>
</g>
<g>
</g>
<g>
</g>
<g>
</g>
<g>
</g>
<g>
</g>
<g>
</g>
<g>
</g>
</svg>
