<?xml version="1.0" encoding="iso-8859-1"?>
<!-- Generator: Adobe Illustrator 19.0.0, SVG Export Plug-In . SVG Version: 6.00 Build 0)  -->
<svg version="1.1" id="Layer_1" xmlns="http://www.w3.org/2000/svg" xmlns:xlink="http://www.w3.org/1999/xlink" x="0px" y="0px"
	 viewBox="0 0 301.109 301.109" style="enable-background:new 0 0 301.109 301.109;" xml:space="preserve">
<g>
	<g>
		<g>
			<path d="M131.2,91.694V53.226C131.2,23.879,107.321,0,77.974,0C48.627,0,24.749,23.879,24.749,53.226v38.468
				c-14.313,7.142-24.194,21.895-24.194,38.952v48.387c0,16.011,13.021,29.032,29.032,29.032V300h96.774v-91.935
				c16.011,0,29.032-13.021,29.032-29.032v-48.387C155.394,113.589,145.513,98.835,131.2,91.694z M34.426,53.226
				c0-24.01,19.534-43.548,43.548-43.548c24.014,0,43.548,19.539,43.548,43.548V88.22c-3.116-0.711-6.348-1.123-9.677-1.123H96.671
				c11.918-6.605,20.013-19.306,20.013-33.871c0-21.344-17.366-38.71-38.71-38.71s-38.71,17.366-38.71,38.71
				c0,14.565,8.095,27.266,20.013,33.871H44.103c-3.329,0-6.561,0.411-9.677,1.123V53.226z M65.878,58.064
				c9.339,0,16.935-7.597,16.935-16.935c0-7.539-4.984-13.868-11.806-16.055c2.235-0.552,4.563-0.881,6.968-0.881
				c16.011,0,29.032,13.021,29.032,29.032c0,16.011-13.021,29.033-29.033,29.033c-16.012,0-29.032-13.021-29.032-29.032
				c0-2.405,0.329-4.732,0.881-6.968C52.01,53.081,58.339,58.064,65.878,58.064z M58.62,41.129c0-4.002,3.256-7.258,7.258-7.258
				c4.001,0,7.258,3.256,7.258,7.258c0,4.002-3.256,7.258-7.258,7.258S58.62,45.131,58.62,41.129z M29.587,198.387
				c-10.674,0-19.355-8.681-19.355-19.355h19.355V198.387z M73.136,290.323H39.265v-9.677h33.871V290.323z M73.136,237.097h-4.839
				v9.677h4.839v24.194H39.265v-24.194H58.62v-9.677H39.265v-38.71h9.677v4.839h9.678v-4.839h14.516v4.839h9.677v-4.839h14.516
				v4.839h9.677v-4.839h9.677v38.71h-4.839v9.677h4.839v24.194h-33.87v-24.194h19.355v-9.677H82.813v-19.355h-9.677V237.097z
				 M116.684,290.323H82.813v-9.677h33.871V290.323z M126.361,198.387v-19.355h19.355
				C145.716,189.706,137.036,198.387,126.361,198.387z M145.716,169.355h-19.355v-48.387h-9.677v67.742h-9.677v-4.839H97.33v4.839
				H82.813v-4.839h-9.677v4.839H58.62v-4.839h-9.677v4.839h-9.677v-67.742h-9.677v48.387H10.232v-38.71
				c0-18.677,15.198-33.871,33.871-33.871h67.742c18.673,0,33.871,15.194,33.871,33.871V169.355z"/>
			<path d="M44.103,169.355h67.742v-62.903H44.103V169.355z M102.168,145.161H82.813v-14.516h19.355V145.161z M53.781,116.129
				h48.387v4.839H73.136v33.871h29.032v4.839H53.781V116.129z"/>
			<rect x="58.62" y="125.806" width="9.677" height="9.677"/>
			<rect x="58.62" y="140.323" width="9.677" height="9.677"/>
			<path d="M208.619,82.258c0,13.341,10.853,24.194,24.194,24.194c13.34,0,24.194-10.854,24.194-24.194
				s-10.853-24.194-24.194-24.194C219.473,58.064,208.619,68.917,208.619,82.258z M247.329,82.258
				c0,8.003-6.513,14.516-14.516,14.516s-14.516-6.513-14.516-14.516s6.513-14.516,14.516-14.516S247.329,74.255,247.329,82.258z"/>
			<path d="M271.523,145.548V85.176c0-26.768-12.634-52.06-33.871-68.211V0h-9.677v16.96
				c-21.237,16.152-33.871,41.444-33.871,68.211v60.377c-16.384,2.361-29.032,16.456-29.032,33.484v53.226h17.506l6.687-13.374
				c1.844-3.687,5.55-5.981,9.677-5.981h4.839v13.374l-5.763,11.531c-2.564,5.124-3.915,10.853-3.915,16.573
				c0,11.947,5.802,23.221,15.523,30.165l23.187,16.563L256,284.546c9.721-6.944,15.523-18.218,15.523-30.165
				c0-5.719-1.35-11.448-3.915-16.577l-5.763-11.526v-13.374h4.839c4.127,0,7.834,2.294,9.677,5.981l6.687,13.374h17.506v-53.226
				C300.555,162.005,287.907,147.91,271.523,145.548z M194.104,203.836c-5.793,1.393-10.747,5.22-13.496,10.722l-4.011,8.023h-1.848
				v-43.548c0-11.681,8.327-21.455,19.355-23.705V203.836z M250.378,276.668l-17.565,12.547l-17.565-12.547
				c-7.181-5.129-11.468-13.461-11.468-22.287c0-4.229,1.002-8.463,2.894-12.247l4.935-9.876h1.848v6.75
				c0,12.547,6.232,24.189,16.669,31.152l2.685,1.785l2.685-1.79c10.437-6.958,16.669-18.605,16.669-31.147v-6.75h1.848l4.935,9.876
				c1.892,3.789,2.894,8.023,2.894,12.247C261.845,263.206,257.558,271.539,250.378,276.668z M223.137,232.258h19.354v6.75
				c0,8.168-3.566,15.827-9.677,21.063c-6.111-5.24-9.677-12.895-9.677-21.063V232.258z M213.458,222.581v-9.677h38.71v9.677
				H213.458z M261.845,116.129h-4.839v9.677h4.839v77.419h-58.064v-77.418h43.548v-9.677h-43.548V85.176
				c0-23.327,10.79-45.416,29.032-59.773c18.242,14.356,29.032,36.445,29.032,59.773V116.129z M290.879,222.581h-0.001h-1.848
				l-4.011-8.023c-2.748-5.506-7.703-9.329-13.495-10.723v-48.508c11.027,2.25,19.355,12.019,19.355,23.705V222.581z"/>
			<rect x="247.329" y="174.194" width="9.677" height="9.677"/>
			<rect x="247.329" y="188.71" width="9.677" height="9.677"/>
			<rect x="232.813" y="188.71" width="9.677" height="9.677"/>
		</g>
	</g>
</g>
<g>
</g>
<g>
</g>
<g>
</g>
<g>
</g>
<g>
</g>
<g>
</g>
<g>
</g>
<g>
</g>
<g>
</g>
<g>
</g>
<g>
</g>
<g>
</g>
<g>
</g>
<g>
</g>
<g>
</g>
</svg>
