<?xml version="1.0" encoding="iso-8859-1"?>
<!-- Generator: Adobe Illustrator 19.0.0, SVG Export Plug-In . SVG Version: 6.00 Build 0)  -->
<svg version="1.1" id="Layer_1" xmlns="http://www.w3.org/2000/svg" xmlns:xlink="http://www.w3.org/1999/xlink" x="0px" y="0px"
	 viewBox="0 0 512 512" style="enable-background:new 0 0 512 512;" xml:space="preserve">
<g>
	<g>
		<path d="M471.936,138.188c40.854-64.197,50.343-105.773,29.013-127.103c-22.312-22.313-66.737-11.008-135.616,34.537
			c-33.357-17.381-70.625-26.606-109.316-26.606c-63.305,0-122.821,24.652-167.586,69.416
			c-44.764,44.764-69.417,104.281-69.417,167.586c0,38.691,9.225,75.96,26.606,109.316C0.08,434.218-11.225,478.639,11.085,500.95
			c7.36,7.36,17.126,11.05,29.403,11.05c23.306-0.002,55.654-13.305,97.701-40.063c2.809-1.788,5.65-3.636,8.511-5.524
			c33.358,17.381,70.625,26.606,109.317,26.606c63.305,0,122.821-24.652,167.586-69.416c44.764-44.763,69.416-104.28,69.416-167.586
			c0-38.691-9.225-75.96-26.606-109.317C468.298,143.84,470.149,140.997,471.936,138.188z M445.906,42.838
			c20.177-7.964,27.737-6.361,29.223-5.879c1.958,4.76-0.162,27.028-30.285,75.791c-6.477-8.5-13.555-16.633-21.243-24.319
			c-7.685-7.685-15.813-14.762-24.313-21.239C416.852,56.351,432.701,48.052,445.906,42.838z M36.959,475.13
			c-0.482-1.484-2.075-9.01,5.817-29.065c5.209-13.237,13.532-29.143,24.418-46.773c6.477,8.498,13.553,16.627,21.238,24.312
			c7.686,7.686,15.817,14.763,24.318,21.243C63.987,474.969,41.72,477.088,36.959,475.13z M145.226,423.245
			c-11.036-7.345-21.426-15.837-31.013-25.424c-37.878-37.877-58.737-88.238-58.737-141.804c0-53.566,20.861-103.926,58.737-141.804
			c37.878-37.877,88.237-58.736,141.804-58.736c53.566,0,103.926,20.86,141.804,58.736c9.587,9.587,18.079,19.977,25.424,31.013
			c-32.868,46.412-77.747,98.657-128.555,149.464S191.638,390.378,145.226,423.245z M397.82,397.822
			c-37.878,37.876-88.238,58.736-141.804,58.736c-26.047,0-51.33-4.945-74.794-14.368c44.121-32.714,92.2-74.666,139.249-121.717
			c47.049-47.048,89.003-95.129,121.717-139.249c9.423,23.463,14.368,48.747,14.368,74.794
			C456.556,309.584,435.697,359.945,397.82,397.822z"/>
	</g>
</g>
<g>
	<g>
		<path d="M238.827,184.136c-0.001,0-0.001,0-0.004,0c-14.607,0-28.341,5.69-38.67,16.02c-10.33,10.33-16.019,24.065-16.019,38.674
			c0,30.156,24.535,54.691,54.692,54.693h0.002c30.155-0.001,54.69-24.536,54.694-54.696
			C293.519,208.67,268.982,184.136,238.827,184.136z M238.827,257.061c-10.053-0.001-18.231-8.18-18.231-18.23
			c0.001-4.871,1.897-9.45,5.34-12.894c3.443-3.443,8.019-5.339,12.888-5.339h0.001c10.052,0,18.233,8.178,18.234,18.228
			C257.059,248.879,248.88,257.06,238.827,257.061z"/>
	</g>
</g>
<g>
	<g>
		<circle cx="268.177" cy="122.33" r="24.308"/>
	</g>
</g>
<g>
</g>
<g>
</g>
<g>
</g>
<g>
</g>
<g>
</g>
<g>
</g>
<g>
</g>
<g>
</g>
<g>
</g>
<g>
</g>
<g>
</g>
<g>
</g>
<g>
</g>
<g>
</g>
<g>
</g>
</svg>
